<svg width="341" height="100" viewBox="0 0 341 100" fill="none" xmlns="http://www.w3.org/2000/svg">
<path d="M40.0001 10C30.1904 10 21.2012 13.5434 14.239 19.4156L14.2356 19.4187C11.6968 21.3455 9.50393 23.6898 7.75079 26.3515C2.88049 32.9782 0 41.1555 0 50.0001C0 60.2136 3.8406 69.5382 10.1523 76.6111L10.0795 76.6839C10.4998 77.1045 10.9285 77.5118 11.3632 77.9089C18.6308 85.3645 28.7786 90 39.9997 90C62.0722 90 80 72.0728 80 50.0003C80 27.9279 62.0722 10.0002 39.9997 10.0002L40.0001 10ZM43.1574 13.3152C62.03 14.914 76.8209 30.7095 76.8209 50.0001C76.8209 65.9797 66.671 79.5614 52.4592 84.662C56.1654 82.9504 59.6264 80.5793 62.666 77.5399C76.9 63.3059 76.5286 39.8447 61.9693 25.1167C57.3125 19.2536 50.7195 14.9984 43.1574 13.3152ZM31.0872 16.9297C39.6654 16.9297 47.2115 21.2764 51.648 27.8911C47.6381 24.0102 42.2446 21.6951 36.8307 21.4959C36.5345 21.485 36.2384 21.4805 35.9422 21.4823C31.5002 21.51 27.0957 22.9824 23.4839 26.2027C17.187 31.8173 15.4192 42.1398 21.5688 48.7798C25.8173 53.3675 33.508 54.6759 38.3068 49.9325C39.8999 48.3582 40.8756 46.2328 41.0473 44.0205C41.2192 41.8083 40.525 39.4493 38.7198 37.738L38.7194 37.7377C37.5766 36.6548 36.0831 36.0035 34.5127 35.9133C32.9423 35.8231 31.2252 36.375 30.0572 37.7503C29.3523 38.5756 28.9597 39.6224 28.9479 40.7077C28.9331 41.8102 29.3928 43.0636 30.4463 43.8502L30.448 43.8515L30.4494 43.8526C31.05 44.2988 31.7333 44.526 32.5132 44.5013C33.2933 44.4763 34.2699 44.0566 34.7749 43.1929V43.1924C35.0505 42.7211 35.1509 42.2805 35.0859 41.7113C35.0207 41.1424 34.5778 40.3133 33.7996 40.012C33.3782 39.8486 33.1412 39.8328 32.6998 39.9325C32.5949 39.9563 32.4735 39.9938 32.3463 40.0516C32.3914 39.9676 32.4291 39.8713 32.4819 39.8088C32.9583 39.2479 33.5623 39.044 34.3305 39.0881C35.0987 39.1322 35.9609 39.505 36.5321 40.046C37.5924 41.0515 37.9863 42.3565 37.8762 43.7743C37.7661 45.1921 37.0907 46.6629 36.0715 47.6705C32.7197 50.9832 27.0598 50.0273 23.903 46.6185C19.0953 41.4275 20.5291 33.0986 25.601 28.5763C32.9311 22.0412 44.4467 24.193 50.6739 31.4905C53.5034 34.8058 55.2546 39.0087 55.7416 43.3581L55.7702 43.3547C54.9065 56.2492 44.2043 66.4108 31.0877 66.4108C17.405 66.4108 6.34679 55.3534 6.34679 41.6703C6.34679 36.6512 7.83603 31.9864 10.3955 28.09C12.0764 25.8218 14.0116 23.7536 16.1633 21.9258C20.3096 18.7891 25.4777 16.9295 31.0877 16.9295L31.0872 16.9297ZM69.1547 44.6469C71.529 55.4854 68.6323 67.0766 60.4172 75.2915C47.6958 88.0129 26.8781 87.9833 13.2974 75.366C7.52314 69.2891 3.80777 61.2387 3.25396 52.3235C6.2869 67.5806 19.7471 79.081 35.8951 79.081C54.2761 79.081 69.1768 64.1808 69.1768 45.7998C69.1768 45.4136 69.1678 45.0298 69.1547 44.6469Z" fill="#390742"/>
<path d="M99.62 70.42C98.9 70.42 98.34 70.22 97.94 69.82C97.54 69.38 97.34 68.78 97.34 68.02V29.68C97.34 28.88 97.54 28.28 97.94 27.88C98.34 27.48 98.9 27.28 99.62 27.28C100.26 27.28 100.76 27.42 101.12 27.7C101.52 27.94 101.88 28.36 102.2 28.96L118.64 59.92H116.84L133.22 28.96C133.54 28.36 133.88 27.94 134.24 27.7C134.6 27.42 135.12 27.28 135.8 27.28C136.48 27.28 137.02 27.48 137.42 27.88C137.82 28.28 138.02 28.88 138.02 29.68V68.02C138.02 68.78 137.82 69.38 137.42 69.82C137.06 70.22 136.5 70.42 135.74 70.42C135.02 70.42 134.46 70.22 134.06 69.82C133.66 69.38 133.46 68.78 133.46 68.02V34.3H134.9L119.9 62.44C119.62 62.96 119.32 63.34 119 63.58C118.72 63.78 118.3 63.88 117.74 63.88C117.18 63.88 116.74 63.76 116.42 63.52C116.1 63.28 115.82 62.92 115.58 62.44L100.4 34.24H101.84V68.02C101.84 68.78 101.64 69.38 101.24 69.82C100.88 70.22 100.34 70.42 99.62 70.42ZM161.028 70.54C157.948 70.54 155.288 69.94 153.048 68.74C150.848 67.5 149.128 65.76 147.888 63.52C146.688 61.28 146.088 58.6 146.088 55.48C146.088 52.44 146.688 49.8 147.888 47.56C149.088 45.28 150.728 43.5 152.808 42.22C154.928 40.94 157.368 40.3 160.128 40.3C162.088 40.3 163.848 40.64 165.408 41.32C166.968 41.96 168.288 42.9 169.368 44.14C170.488 45.38 171.328 46.88 171.888 48.64C172.488 50.4 172.788 52.38 172.788 54.58C172.788 55.22 172.608 55.7 172.248 56.02C171.888 56.3 171.368 56.44 170.688 56.44H149.808V53.26H169.548L168.588 54.04C168.588 51.88 168.268 50.06 167.628 48.58C166.988 47.06 166.048 45.9 164.808 45.1C163.608 44.3 162.088 43.9 160.248 43.9C158.208 43.9 156.468 44.38 155.028 45.34C153.628 46.26 152.568 47.56 151.848 49.24C151.128 50.88 150.768 52.8 150.768 55V55.36C150.768 59.04 151.648 61.84 153.408 63.76C155.208 65.68 157.748 66.64 161.028 66.64C162.388 66.64 163.728 66.46 165.048 66.1C166.408 65.74 167.728 65.14 169.008 64.3C169.568 63.94 170.068 63.78 170.508 63.82C170.988 63.82 171.368 63.96 171.648 64.24C171.928 64.48 172.108 64.8 172.188 65.2C172.308 65.56 172.268 65.96 172.068 66.4C171.908 66.84 171.568 67.22 171.048 67.54C169.728 68.5 168.168 69.24 166.368 69.76C164.568 70.28 162.788 70.54 161.028 70.54ZM190.33 70.42C189.65 70.42 189.05 70.24 188.53 69.88C188.01 69.48 187.57 68.88 187.21 68.08L176.83 43.84C176.55 43.24 176.45 42.68 176.53 42.16C176.61 41.64 176.85 41.22 177.25 40.9C177.65 40.58 178.21 40.42 178.93 40.42C179.57 40.42 180.07 40.56 180.43 40.84C180.79 41.12 181.11 41.62 181.39 42.34L191.23 66.4H189.61L199.63 42.34C199.91 41.62 200.23 41.12 200.59 40.84C200.95 40.56 201.47 40.42 202.15 40.42C202.79 40.42 203.27 40.58 203.59 40.9C203.95 41.22 204.15 41.64 204.19 42.16C204.27 42.64 204.19 43.18 203.95 43.78L193.45 68.08C193.17 68.88 192.75 69.48 192.19 69.88C191.67 70.24 191.05 70.42 190.33 70.42ZM218.943 70.54C216.943 70.54 215.143 70.16 213.543 69.4C211.983 68.6 210.743 67.52 209.823 66.16C208.903 64.8 208.443 63.28 208.443 61.6C208.443 59.44 208.983 57.74 210.063 56.5C211.183 55.26 213.003 54.38 215.523 53.86C218.083 53.34 221.563 53.08 225.963 53.08H228.663V56.26H226.023C222.783 56.26 220.223 56.42 218.343 56.74C216.503 57.02 215.203 57.52 214.443 58.24C213.723 58.96 213.363 59.98 213.363 61.3C213.363 62.94 213.923 64.28 215.043 65.32C216.203 66.36 217.763 66.88 219.723 66.88C221.323 66.88 222.723 66.5 223.923 65.74C225.163 64.98 226.123 63.94 226.803 62.62C227.523 61.3 227.883 59.78 227.883 58.06V51.22C227.883 48.74 227.383 46.96 226.383 45.88C225.383 44.76 223.743 44.2 221.463 44.2C220.063 44.2 218.663 44.38 217.263 44.74C215.863 45.1 214.383 45.68 212.823 46.48C212.263 46.76 211.783 46.86 211.383 46.78C210.983 46.66 210.663 46.44 210.423 46.12C210.183 45.8 210.043 45.44 210.003 45.04C209.963 44.6 210.043 44.18 210.243 43.78C210.483 43.38 210.843 43.06 211.323 42.82C213.083 41.94 214.823 41.3 216.543 40.9C218.263 40.5 219.903 40.3 221.463 40.3C223.983 40.3 226.063 40.72 227.703 41.56C229.343 42.36 230.563 43.6 231.363 45.28C232.163 46.92 232.563 49.04 232.563 51.64V67.9C232.563 68.7 232.363 69.32 231.963 69.76C231.603 70.2 231.063 70.42 230.343 70.42C229.583 70.42 229.003 70.2 228.603 69.76C228.203 69.32 228.003 68.7 228.003 67.9V63.22H228.543C228.223 64.74 227.603 66.04 226.683 67.12C225.803 68.2 224.703 69.04 223.383 69.64C222.063 70.24 220.583 70.54 218.943 70.54ZM243.98 70.42C243.18 70.42 242.58 70.2 242.18 69.76C241.78 69.32 241.58 68.7 241.58 67.9V29.74C241.58 28.94 241.78 28.34 242.18 27.94C242.58 27.5 243.18 27.28 243.98 27.28C244.74 27.28 245.34 27.5 245.78 27.94C246.22 28.34 246.44 28.94 246.44 29.74V53.8H246.56L258.86 42.04C259.42 41.52 259.9 41.12 260.3 40.84C260.74 40.56 261.32 40.42 262.04 40.42C262.68 40.42 263.18 40.6 263.54 40.96C263.9 41.28 264.06 41.7 264.02 42.22C264.02 42.7 263.78 43.22 263.3 43.78L250.22 56.2V53.56L264.44 66.94C265 67.5 265.28 68.04 265.28 68.56C265.28 69.08 265.08 69.52 264.68 69.88C264.32 70.24 263.84 70.42 263.24 70.42C262.52 70.42 261.94 70.28 261.5 70C261.06 69.68 260.52 69.22 259.88 68.62L246.56 56.32H246.44V67.9C246.44 69.58 245.62 70.42 243.98 70.42Z" fill="#390742"/>
</svg>
